<svg width="449" height="107" viewBox="0 0 449 107" fill="none" xmlns="http://www.w3.org/2000/svg">
<circle cx="52" cy="41.5" r="10" fill="white"/>
<path d="M3.096 79.356C3.096 78.636 3.36 77.892 3.888 77.124C4.464 76.356 5.112 75.972 5.832 75.972C6.072 75.972 6.24 76.02 6.336 76.116C8.016 77.892 10.536 79.524 13.896 81.012C17.304 82.452 20.496 83.172 23.472 83.172C32.064 83.172 36.36 80.316 36.36 74.604C36.36 72.684 35.76 71.124 34.56 69.924C33.408 68.676 31.872 67.74 29.952 67.116C28.08 66.492 25.992 65.964 23.688 65.532C21.432 65.1 19.152 64.596 16.848 64.02C14.544 63.396 12.432 62.628 10.512 61.716C8.64 60.804 7.104 59.412 5.904 57.54C4.752 55.668 4.176 53.388 4.176 50.7C4.176 46.668 5.952 43.572 9.504 41.412C13.056 39.204 17.304 38.1 22.248 38.1C26.088 38.1 29.688 38.748 33.048 40.044C36.456 41.292 38.952 43.068 40.536 45.372C40.584 45.468 40.608 45.588 40.608 45.732C40.608 46.308 40.2 46.908 39.384 47.532C38.616 48.108 37.92 48.396 37.296 48.396C37.2 48.396 36.912 48.276 36.432 48.036C32.64 44.916 27.936 43.356 22.32 43.356C18.912 43.356 15.912 44.004 13.32 45.3C10.728 46.548 9.432 48.468 9.432 51.06C9.432 52.836 10.008 54.3 11.16 55.452C12.36 56.604 13.896 57.468 15.768 58.044C17.688 58.572 19.8 59.052 22.104 59.484C24.408 59.868 26.712 60.372 29.016 60.996C31.32 61.62 33.408 62.436 35.28 63.444C37.2 64.404 38.736 65.868 39.888 67.836C41.088 69.804 41.688 72.204 41.688 75.036C41.688 83.964 35.784 88.428 23.976 88.428C20.136 88.428 16.368 87.756 12.672 86.412C8.976 85.02 5.952 83.124 3.6 80.724C3.264 80.388 3.096 79.932 3.096 79.356ZM49.32 86.484V54.444C49.32 53.148 50.232 52.5 52.056 52.5C52.776 52.5 53.376 52.668 53.856 53.004C54.384 53.34 54.648 53.82 54.648 54.444V86.484C54.648 87.108 54.384 87.612 53.856 87.996C53.328 88.332 52.704 88.5 51.984 88.5C50.208 88.5 49.32 87.828 49.32 86.484ZM49.32 43.284V41.988C49.32 40.692 50.232 40.044 52.056 40.044C52.776 40.044 53.376 40.212 53.856 40.548C54.384 40.884 54.648 41.364 54.648 41.988V43.284C54.648 43.908 54.384 44.412 53.856 44.796C53.328 45.132 52.704 45.3 51.984 45.3C50.208 45.3 49.32 44.628 49.32 43.284ZM63.2402 86.484V54.588C63.2402 53.292 64.1522 52.644 65.9762 52.644C66.6962 52.644 67.2962 52.812 67.7762 53.148C68.3042 53.484 68.5682 53.964 68.5682 54.588V58.404C70.1042 56.58 71.9762 55.02 74.1842 53.724C76.3922 52.428 78.5762 51.78 80.7362 51.78C86.6402 51.78 90.8402 53.916 93.3362 58.188C94.8242 56.124 96.7202 54.54 99.0242 53.436C101.376 52.332 103.752 51.78 106.152 51.78C110.616 51.78 114.144 53.052 116.736 55.596C119.328 58.14 120.624 61.668 120.624 66.18C120.624 66.612 120.6 68.988 120.552 73.308C120.552 77.58 120.552 82.068 120.552 86.772C120.552 87.396 120.288 87.9 119.76 88.284C119.232 88.62 118.632 88.788 117.96 88.788C116.184 88.788 115.296 88.116 115.296 86.772V66.828C115.296 60.348 112.344 57.108 106.44 57.108C105.576 57.108 104.688 57.204 103.776 57.396C102.912 57.54 101.952 57.852 100.896 58.332C99.8882 58.812 98.9762 59.412 98.1602 60.132C97.3442 60.804 96.6722 61.74 96.1442 62.94C95.6162 64.14 95.3522 65.484 95.3522 66.972C95.3522 68.844 95.3282 71.22 95.2802 74.1C95.2802 76.98 95.2802 81.204 95.2802 86.772C95.2802 87.396 94.9922 87.9 94.4162 88.284C93.8882 88.62 93.2642 88.788 92.5442 88.788C90.8642 88.788 90.0242 88.116 90.0242 86.772V66.828C90.0242 63.324 89.1842 60.828 87.5042 59.34C85.8242 57.852 83.6642 57.108 81.0242 57.108C78.4802 57.108 76.0082 58.068 73.6082 59.988C71.2562 61.908 69.5762 64.14 68.5682 66.684V86.484C68.5682 87.108 68.3042 87.612 67.7762 87.996C67.2482 88.332 66.6242 88.5 65.9042 88.5C64.1282 88.5 63.2402 87.828 63.2402 86.484ZM128.843 104.556V54.516C128.843 53.892 129.107 53.412 129.635 53.076C130.163 52.692 130.787 52.5 131.507 52.5C133.283 52.5 134.171 53.172 134.171 54.516V62.364C138.731 55.404 145.475 51.924 154.403 51.924C158.483 51.924 161.939 53.292 164.771 56.028C167.651 58.716 169.091 61.884 169.091 65.532C169.091 69.804 167.915 73.74 165.563 77.34C163.211 80.892 160.139 83.652 156.347 85.62C152.603 87.588 148.667 88.572 144.539 88.572C140.555 88.572 137.099 87.252 134.171 84.612V104.556C134.171 105.852 133.259 106.5 131.435 106.5C130.715 106.5 130.091 106.332 129.563 105.996C129.083 105.66 128.843 105.18 128.843 104.556ZM134.099 74.316C134.099 77.244 135.251 79.452 137.555 80.94C139.907 82.428 142.235 83.172 144.539 83.172C147.323 83.172 150.155 82.5 153.035 81.156C155.915 79.812 158.363 77.82 160.379 75.18C162.443 72.492 163.475 69.564 163.475 66.396C163.475 63.132 162.443 60.78 160.379 59.34C158.363 57.9 155.915 57.18 153.035 57.18C150.347 57.18 147.491 58.092 144.467 59.916C141.491 61.692 139.019 63.948 137.051 66.684C135.083 69.372 134.099 71.916 134.099 74.316ZM176.164 86.484V36.444C176.164 35.148 177.076 34.5 178.9 34.5C179.62 34.5 180.22 34.668 180.7 35.004C181.228 35.34 181.492 35.82 181.492 36.444V86.484C181.492 87.108 181.228 87.612 180.7 87.996C180.172 88.332 179.548 88.5 178.828 88.5C177.052 88.5 176.164 87.828 176.164 86.484ZM188.572 69.492C188.572 66.42 189.244 63.684 190.588 61.284C191.932 58.884 193.708 56.988 195.916 55.596C198.124 54.204 200.5 53.172 203.044 52.5C205.588 51.78 208.18 51.42 210.82 51.42C215.524 51.42 219.172 52.452 221.764 54.516C224.356 56.532 225.652 59.028 225.652 62.004C225.652 65.22 224.14 67.956 221.116 70.212C218.092 72.468 213.796 73.596 208.228 73.596C203.236 73.596 198.484 72.876 193.972 71.436C194.5 74.988 196.156 77.964 198.94 80.364C201.724 82.764 205.156 83.964 209.236 83.964C211.396 83.964 213.628 83.628 215.932 82.956C218.284 82.284 220.132 81.324 221.476 80.076C221.668 79.692 222.052 79.5 222.628 79.5C223.3 79.5 224.02 79.812 224.788 80.436C225.556 81.012 225.94 81.612 225.94 82.236C224.74 84.684 222.388 86.484 218.884 87.636C215.428 88.74 212.068 89.292 208.804 89.292C202.9 89.292 198.052 87.348 194.26 83.46C190.468 79.572 188.572 74.916 188.572 69.492ZM194.26 65.892C197.86 67.476 202.324 68.268 207.652 68.268C211.828 68.268 214.996 67.62 217.156 66.324C219.316 64.98 220.396 63.492 220.396 61.86C220.396 60.42 219.484 59.22 217.66 58.26C215.884 57.252 213.22 56.748 209.668 56.748C205.828 56.748 202.612 57.612 200.02 59.34C197.476 61.02 195.556 63.204 194.26 65.892ZM334.874 55.164C334.874 54.444 335.042 53.82 335.378 53.292C335.762 52.764 336.266 52.5 336.89 52.5H339.338V43.644C339.338 43.02 339.578 42.54 340.058 42.204C340.586 41.868 341.21 41.7 341.93 41.7C343.754 41.7 344.666 42.348 344.666 43.644V52.5H356.186C356.81 52.5 357.29 52.764 357.626 53.292C357.962 53.772 358.13 54.372 358.13 55.092C358.13 56.916 357.482 57.828 356.186 57.828H344.666V75.036C344.666 80.412 346.706 83.1 350.786 83.1C352.514 83.1 354.002 82.62 355.25 81.66C356.546 80.7 357.194 79.02 357.194 76.62C357.194 75.948 357.458 75.396 357.986 74.964C358.562 74.532 359.234 74.316 360.002 74.316C360.722 74.316 361.322 74.532 361.802 74.964C362.282 75.348 362.522 75.924 362.522 76.692C362.474 80.484 361.322 83.388 359.066 85.404C356.858 87.42 354.098 88.428 350.786 88.428C343.154 88.428 339.338 83.316 339.338 73.092V57.828H336.89C335.546 57.828 334.874 56.94 334.874 55.164ZM366.463 69.492C366.463 66.42 367.135 63.684 368.479 61.284C369.823 58.884 371.599 56.988 373.807 55.596C376.015 54.204 378.391 53.172 380.935 52.5C383.479 51.78 386.071 51.42 388.711 51.42C393.415 51.42 397.063 52.452 399.655 54.516C402.247 56.532 403.543 59.028 403.543 62.004C403.543 65.22 402.031 67.956 399.007 70.212C395.983 72.468 391.687 73.596 386.119 73.596C381.127 73.596 376.375 72.876 371.863 71.436C372.391 74.988 374.047 77.964 376.831 80.364C379.615 82.764 383.047 83.964 387.127 83.964C389.287 83.964 391.519 83.628 393.823 82.956C396.175 82.284 398.023 81.324 399.367 80.076C399.559 79.692 399.943 79.5 400.519 79.5C401.191 79.5 401.911 79.812 402.679 80.436C403.447 81.012 403.831 81.612 403.831 82.236C402.631 84.684 400.279 86.484 396.775 87.636C393.319 88.74 389.959 89.292 386.695 89.292C380.791 89.292 375.943 87.348 372.151 83.46C368.359 79.572 366.463 74.916 366.463 69.492ZM372.151 65.892C375.751 67.476 380.215 68.268 385.543 68.268C389.719 68.268 392.887 67.62 395.047 66.324C397.207 64.98 398.287 63.492 398.287 61.86C398.287 60.42 397.375 59.22 395.551 58.26C393.775 57.252 391.111 56.748 387.559 56.748C383.719 56.748 380.503 57.612 377.911 59.34C375.367 61.02 373.447 63.204 372.151 65.892ZM409.425 81.66C409.425 81.036 409.689 80.364 410.217 79.644C410.793 78.924 411.441 78.468 412.161 78.276C412.497 78.276 412.665 78.324 412.665 78.42C414.201 80.1 416.409 81.42 419.289 82.38C422.169 83.292 424.425 83.82 426.057 83.964C427.737 84.108 429.297 84.18 430.737 84.18C436.977 84.18 440.097 82.284 440.097 78.492C440.097 77.196 439.617 76.164 438.657 75.396C437.745 74.58 436.473 74.028 434.841 73.74C433.257 73.452 431.649 73.26 430.017 73.164C428.385 73.068 426.609 72.996 424.689 72.948C422.769 72.852 421.305 72.708 420.297 72.516C417.561 71.988 415.137 70.884 413.025 69.204C410.913 67.476 409.857 65.46 409.857 63.156C409.857 59.508 411.681 56.724 415.329 54.804C419.025 52.836 423.081 51.852 427.497 51.852C430.473 51.852 433.665 52.38 437.073 53.436C440.481 54.444 443.025 56.028 444.705 58.188C444.753 58.284 444.777 58.404 444.777 58.548C444.777 59.172 444.489 59.916 443.913 60.78C443.337 61.596 442.785 62.004 442.257 62.004C441.777 62.004 441.297 61.62 440.817 60.852C438.513 58.404 433.929 57.18 427.065 57.18C424.233 57.18 421.545 57.66 419.001 58.62C416.457 59.58 415.185 60.996 415.185 62.868C415.185 64.452 416.289 65.652 418.497 66.468C420.705 67.236 423.057 67.62 425.553 67.62C427.329 67.62 428.817 67.644 430.017 67.692C431.217 67.74 432.681 67.884 434.409 68.124C436.137 68.316 437.577 68.676 438.729 69.204C439.881 69.684 441.009 70.332 442.113 71.148C443.217 71.916 444.033 72.972 444.561 74.316C445.137 75.612 445.425 77.148 445.425 78.924C445.425 81.372 444.657 83.436 443.121 85.116C441.633 86.748 439.905 87.876 437.937 88.5C436.017 89.172 433.977 89.508 431.817 89.508C421.689 89.508 414.393 87.348 409.929 83.028C409.593 82.692 409.425 82.236 409.425 81.66Z" fill="white"/>
<circle cx="52" cy="41.5" r="5" fill="black"/>
<circle cx="311" cy="71.5" r="21" fill="white"/>
<circle cx="311" cy="71.5" r="11" fill="black"/>
<rect x="239" y="42.5" width="47" height="50" fill="white"/>
<path d="M242 32.0556C242 32.0556 252.964 70.0926 259.343 85.5L289 1" stroke="#FF0000" stroke-width="5"/>
</svg>
